<mxfile host="app.diagrams.net" modified="2023-05-22T18:37:25.715Z" agent="Mozilla/5.0 (Windows NT 10.0; Win64; x64; rv:109.0) Gecko/20100101 Firefox/112.0" etag="fAT00rjmJ_b5xk5SmYuQ" version="21.3.2" type="device">
  <diagram name="第 1 页" id="S3UBIRAIafsWOS2T1fxA">
    <mxGraphModel dx="1185" dy="632" grid="1" gridSize="10" guides="1" tooltips="1" connect="1" arrows="1" fold="1" page="1" pageScale="1" pageWidth="827" pageHeight="1169" math="0" shadow="0">
      <root>
        <mxCell id="0" />
        <mxCell id="1" parent="0" />
        <mxCell id="YqJjM1ola8D3E4-R6QfC-3" value="数据查询需求" style="edgeStyle=orthogonalEdgeStyle;rounded=0;orthogonalLoop=1;jettySize=auto;html=1;entryX=0;entryY=0.5;entryDx=0;entryDy=0;" edge="1" parent="1" source="YqJjM1ola8D3E4-R6QfC-4" target="YqJjM1ola8D3E4-R6QfC-7">
          <mxGeometry relative="1" as="geometry">
            <mxPoint x="300" y="403" as="targetPoint" />
          </mxGeometry>
        </mxCell>
        <mxCell id="YqJjM1ola8D3E4-R6QfC-4" value="数据查询者" style="rounded=0;whiteSpace=wrap;html=1;" vertex="1" parent="1">
          <mxGeometry x="70" y="370" width="90" height="60" as="geometry" />
        </mxCell>
        <mxCell id="YqJjM1ola8D3E4-R6QfC-5" value="特定形式的查询结果集" style="edgeStyle=orthogonalEdgeStyle;rounded=0;orthogonalLoop=1;jettySize=auto;html=1;entryX=0;entryY=0.5;entryDx=0;entryDy=0;exitX=1;exitY=0.5;exitDx=0;exitDy=0;" edge="1" parent="1" source="YqJjM1ola8D3E4-R6QfC-19" target="YqJjM1ola8D3E4-R6QfC-8">
          <mxGeometry relative="1" as="geometry">
            <mxPoint x="450" y="400" as="sourcePoint" />
          </mxGeometry>
        </mxCell>
        <mxCell id="YqJjM1ola8D3E4-R6QfC-6" value="P1" style="swimlane;fontStyle=0;childLayout=stackLayout;horizontal=1;startSize=30;horizontalStack=0;resizeParent=1;resizeParentMax=0;resizeLast=0;collapsible=1;marginBottom=0;whiteSpace=wrap;html=1;" vertex="1" parent="1">
          <mxGeometry x="260" y="340" width="60" height="90" as="geometry" />
        </mxCell>
        <mxCell id="YqJjM1ola8D3E4-R6QfC-7" value="数据查询" style="text;strokeColor=none;fillColor=none;align=left;verticalAlign=middle;spacingLeft=4;spacingRight=4;overflow=hidden;points=[[0,0.5],[1,0.5]];portConstraint=eastwest;rotatable=0;whiteSpace=wrap;html=1;" vertex="1" parent="YqJjM1ola8D3E4-R6QfC-6">
          <mxGeometry y="30" width="60" height="60" as="geometry" />
        </mxCell>
        <mxCell id="YqJjM1ola8D3E4-R6QfC-8" value="数据使用者" style="rounded=0;whiteSpace=wrap;html=1;" vertex="1" parent="1">
          <mxGeometry x="600" y="370" width="80" height="60" as="geometry" />
        </mxCell>
        <mxCell id="YqJjM1ola8D3E4-R6QfC-9" value="" style="shape=partialRectangle;whiteSpace=wrap;html=1;bottom=0;right=0;fillColor=none;" vertex="1" parent="1">
          <mxGeometry x="60" y="360" width="90" height="60" as="geometry" />
        </mxCell>
        <mxCell id="YqJjM1ola8D3E4-R6QfC-10" value="" style="shape=partialRectangle;whiteSpace=wrap;html=1;bottom=0;right=0;fillColor=none;" vertex="1" parent="1">
          <mxGeometry x="590" y="360" width="80" height="60" as="geometry" />
        </mxCell>
        <mxCell id="YqJjM1ola8D3E4-R6QfC-11" style="edgeStyle=orthogonalEdgeStyle;rounded=0;orthogonalLoop=1;jettySize=auto;html=1;entryX=-0.03;entryY=0.514;entryDx=0;entryDy=0;entryPerimeter=0;" edge="1" parent="1" source="YqJjM1ola8D3E4-R6QfC-13" target="YqJjM1ola8D3E4-R6QfC-21">
          <mxGeometry relative="1" as="geometry">
            <mxPoint x="220" y="65" as="targetPoint" />
          </mxGeometry>
        </mxCell>
        <mxCell id="YqJjM1ola8D3E4-R6QfC-12" value="待录入的原始数据" style="edgeLabel;html=1;align=center;verticalAlign=middle;resizable=0;points=[];" vertex="1" connectable="0" parent="YqJjM1ola8D3E4-R6QfC-11">
          <mxGeometry x="0.1078" y="2" relative="1" as="geometry">
            <mxPoint x="-10" y="1" as="offset" />
          </mxGeometry>
        </mxCell>
        <mxCell id="YqJjM1ola8D3E4-R6QfC-13" value="数据提供者" style="rounded=0;whiteSpace=wrap;html=1;" vertex="1" parent="1">
          <mxGeometry x="40" y="50" width="90" height="60" as="geometry" />
        </mxCell>
        <mxCell id="YqJjM1ola8D3E4-R6QfC-14" value="" style="shape=partialRectangle;whiteSpace=wrap;html=1;bottom=0;right=0;fillColor=none;" vertex="1" parent="1">
          <mxGeometry x="30" y="40" width="90" height="60" as="geometry" />
        </mxCell>
        <mxCell id="YqJjM1ola8D3E4-R6QfC-40" style="edgeStyle=orthogonalEdgeStyle;rounded=0;orthogonalLoop=1;jettySize=auto;html=1;entryX=0.25;entryY=0;entryDx=0;entryDy=0;" edge="1" parent="1" source="YqJjM1ola8D3E4-R6QfC-15" target="YqJjM1ola8D3E4-R6QfC-6">
          <mxGeometry relative="1" as="geometry" />
        </mxCell>
        <mxCell id="YqJjM1ola8D3E4-R6QfC-15" value="D1&amp;nbsp;&amp;nbsp;&amp;nbsp; 标准数据" style="html=1;dashed=0;whiteSpace=wrap;shape=mxgraph.dfd.dataStoreID;align=left;spacingLeft=3;points=[[0,0],[0.5,0],[1,0],[0,0.5],[1,0.5],[0,1],[0.5,1],[1,1]];" vertex="1" parent="1">
          <mxGeometry x="180" y="270" width="100" height="30" as="geometry" />
        </mxCell>
        <mxCell id="YqJjM1ola8D3E4-R6QfC-18" value="P1.2" style="swimlane;fontStyle=0;childLayout=stackLayout;horizontal=1;startSize=30;horizontalStack=0;resizeParent=1;resizeParentMax=0;resizeLast=0;collapsible=1;marginBottom=0;whiteSpace=wrap;html=1;" vertex="1" parent="1">
          <mxGeometry x="404" y="340" width="60" height="90" as="geometry" />
        </mxCell>
        <mxCell id="YqJjM1ola8D3E4-R6QfC-19" value="数据导出" style="text;strokeColor=none;fillColor=none;align=left;verticalAlign=middle;spacingLeft=4;spacingRight=4;overflow=hidden;points=[[0,0.5],[1,0.5]];portConstraint=eastwest;rotatable=0;whiteSpace=wrap;html=1;" vertex="1" parent="YqJjM1ola8D3E4-R6QfC-18">
          <mxGeometry y="30" width="60" height="60" as="geometry" />
        </mxCell>
        <mxCell id="YqJjM1ola8D3E4-R6QfC-37" value="处理完成的数据" style="edgeStyle=orthogonalEdgeStyle;rounded=0;orthogonalLoop=1;jettySize=auto;html=1;entryX=0.5;entryY=0;entryDx=0;entryDy=0;" edge="1" parent="1" source="YqJjM1ola8D3E4-R6QfC-20" target="YqJjM1ola8D3E4-R6QfC-22">
          <mxGeometry relative="1" as="geometry" />
        </mxCell>
        <mxCell id="YqJjM1ola8D3E4-R6QfC-20" value="P2.1" style="swimlane;fontStyle=0;childLayout=stackLayout;horizontal=1;startSize=30;horizontalStack=0;resizeParent=1;resizeParentMax=0;resizeLast=0;collapsible=1;marginBottom=0;whiteSpace=wrap;html=1;" vertex="1" parent="1">
          <mxGeometry x="260" y="20" width="60" height="90" as="geometry" />
        </mxCell>
        <mxCell id="YqJjM1ola8D3E4-R6QfC-21" value="数据处理" style="text;strokeColor=none;fillColor=none;align=left;verticalAlign=middle;spacingLeft=4;spacingRight=4;overflow=hidden;points=[[0,0.5],[1,0.5]];portConstraint=eastwest;rotatable=0;whiteSpace=wrap;html=1;" vertex="1" parent="YqJjM1ola8D3E4-R6QfC-20">
          <mxGeometry y="30" width="60" height="60" as="geometry" />
        </mxCell>
        <mxCell id="YqJjM1ola8D3E4-R6QfC-38" style="edgeStyle=orthogonalEdgeStyle;rounded=0;orthogonalLoop=1;jettySize=auto;html=1;" edge="1" parent="1" source="YqJjM1ola8D3E4-R6QfC-22" target="YqJjM1ola8D3E4-R6QfC-15">
          <mxGeometry relative="1" as="geometry">
            <Array as="points">
              <mxPoint x="270" y="250" />
              <mxPoint x="230" y="250" />
            </Array>
          </mxGeometry>
        </mxCell>
        <mxCell id="YqJjM1ola8D3E4-R6QfC-39" style="edgeStyle=orthogonalEdgeStyle;rounded=0;orthogonalLoop=1;jettySize=auto;html=1;entryX=0.5;entryY=0;entryDx=0;entryDy=0;" edge="1" parent="1" source="YqJjM1ola8D3E4-R6QfC-22" target="YqJjM1ola8D3E4-R6QfC-28">
          <mxGeometry relative="1" as="geometry">
            <Array as="points">
              <mxPoint x="310" y="250" />
              <mxPoint x="359" y="250" />
            </Array>
          </mxGeometry>
        </mxCell>
        <mxCell id="YqJjM1ola8D3E4-R6QfC-22" value="P2.2" style="swimlane;fontStyle=0;childLayout=stackLayout;horizontal=1;startSize=30;horizontalStack=0;resizeParent=1;resizeParentMax=0;resizeLast=0;collapsible=1;marginBottom=0;whiteSpace=wrap;html=1;" vertex="1" parent="1">
          <mxGeometry x="260" y="140" width="60" height="90" as="geometry">
            <mxRectangle x="490" y="20" width="60" height="30" as="alternateBounds" />
          </mxGeometry>
        </mxCell>
        <mxCell id="YqJjM1ola8D3E4-R6QfC-23" value="数据录入" style="text;strokeColor=none;fillColor=none;align=left;verticalAlign=middle;spacingLeft=4;spacingRight=4;overflow=hidden;points=[[0,0.5],[1,0.5]];portConstraint=eastwest;rotatable=0;whiteSpace=wrap;html=1;" vertex="1" parent="YqJjM1ola8D3E4-R6QfC-22">
          <mxGeometry y="30" width="60" height="60" as="geometry" />
        </mxCell>
        <mxCell id="YqJjM1ola8D3E4-R6QfC-41" style="edgeStyle=orthogonalEdgeStyle;rounded=0;orthogonalLoop=1;jettySize=auto;html=1;entryX=0.75;entryY=0;entryDx=0;entryDy=0;" edge="1" parent="1" source="YqJjM1ola8D3E4-R6QfC-28" target="YqJjM1ola8D3E4-R6QfC-6">
          <mxGeometry relative="1" as="geometry" />
        </mxCell>
        <mxCell id="YqJjM1ola8D3E4-R6QfC-28" value="D2 &amp;nbsp;&amp;nbsp; &lt;span style=&quot;white-space: pre;&quot;&gt;非标准&lt;/span&gt;数据" style="html=1;dashed=0;whiteSpace=wrap;shape=mxgraph.dfd.dataStoreID;align=left;spacingLeft=3;points=[[0,0],[0.5,0],[1,0],[0,0.5],[1,0.5],[0,1],[0.5,1],[1,1]];" vertex="1" parent="1">
          <mxGeometry x="304" y="270" width="110" height="30" as="geometry" />
        </mxCell>
        <mxCell id="YqJjM1ola8D3E4-R6QfC-42" value="D3 &amp;nbsp;&amp;nbsp; 查询记录" style="html=1;dashed=0;whiteSpace=wrap;shape=mxgraph.dfd.dataStoreID;align=left;spacingLeft=3;points=[[0,0],[0.5,0],[1,0],[0,0.5],[1,0.5],[0,1],[0.5,1],[1,1]];" vertex="1" parent="1">
          <mxGeometry x="240" y="460" width="100" height="30" as="geometry" />
        </mxCell>
        <mxCell id="YqJjM1ola8D3E4-R6QfC-43" value="查询结果" style="edgeStyle=orthogonalEdgeStyle;rounded=0;orthogonalLoop=1;jettySize=auto;html=1;" edge="1" parent="1" source="YqJjM1ola8D3E4-R6QfC-7" target="YqJjM1ola8D3E4-R6QfC-19">
          <mxGeometry relative="1" as="geometry" />
        </mxCell>
        <mxCell id="YqJjM1ola8D3E4-R6QfC-45" value="D4 &amp;nbsp;&amp;nbsp; 录入记录" style="html=1;dashed=0;whiteSpace=wrap;shape=mxgraph.dfd.dataStoreID;align=left;spacingLeft=3;points=[[0,0],[0.5,0],[1,0],[0,0.5],[1,0.5],[0,1],[0.5,1],[1,1]];" vertex="1" parent="1">
          <mxGeometry x="364" y="185" width="100" height="30" as="geometry" />
        </mxCell>
        <mxCell id="YqJjM1ola8D3E4-R6QfC-46" value="" style="endArrow=classic;startArrow=classic;html=1;rounded=0;exitX=0.5;exitY=0;exitDx=0;exitDy=0;entryX=0.502;entryY=1.002;entryDx=0;entryDy=0;entryPerimeter=0;" edge="1" parent="1" source="YqJjM1ola8D3E4-R6QfC-42" target="YqJjM1ola8D3E4-R6QfC-7">
          <mxGeometry width="50" height="50" relative="1" as="geometry">
            <mxPoint x="390" y="520" as="sourcePoint" />
            <mxPoint x="290" y="440" as="targetPoint" />
          </mxGeometry>
        </mxCell>
        <mxCell id="YqJjM1ola8D3E4-R6QfC-47" value="" style="endArrow=classic;startArrow=classic;html=1;rounded=0;exitX=1;exitY=0.5;exitDx=0;exitDy=0;entryX=0;entryY=0.5;entryDx=0;entryDy=0;" edge="1" parent="1" source="YqJjM1ola8D3E4-R6QfC-23" target="YqJjM1ola8D3E4-R6QfC-45">
          <mxGeometry width="50" height="50" relative="1" as="geometry">
            <mxPoint x="370" y="170" as="sourcePoint" />
            <mxPoint x="420" y="120" as="targetPoint" />
          </mxGeometry>
        </mxCell>
      </root>
    </mxGraphModel>
  </diagram>
</mxfile>
